<svg xmlns="http://www.w3.org/2000/svg" viewBox="0 0 430 73" role="img" aria-labelledby="title description">
  <title id="title">WorkspaceEcom</title>
  <desc id="description">WorkspaceEcom wordmark with a stylized W symbol</desc>
  <g fill="#000000">
    <path d="M7 18.5c-.9-1.9.5-4.1 2.6-4.1h16.8c1.1 0 2.1.6 2.6 1.6l10.8 21.9-10.2 20.4c-1 2-3.8 2-4.8 0L7 18.5Z"/>
    <path d="M30.1 18.5c-.9-1.9.5-4.1 2.6-4.1h11.7c1.1 0 2.1.6 2.6 1.6l7.1 14.5-10.3 20.8L30.1 18.5Z" opacity=".82"/>
    <path d="M45.2 31.9 53 16c.5-1 1.5-1.6 2.6-1.6h17.1c2.1 0 3.5 2.2 2.6 4.1L56.8 58.3c-1 2-3.8 2-4.8 0l-9.4-19 2.6-7.4Z"/>
    <path d="M107.1 21.1h8.4l6.1 24.2 6.9-24.2h7.2l6.9 24.2 6.1-24.2h8.4l-10.3 35.8h-7.7l-7-23.6-7 23.6h-7.7l-10.3-35.8Zm49.6 23.2c0-7.8 5.9-13.4 14.2-13.4s14.2 5.6 14.2 13.4-5.9 13.4-14.2 13.4-14.2-5.6-14.2-13.4Zm20.8 0c0-4.1-2.6-6.8-6.6-6.8s-6.6 2.7-6.6 6.8 2.6 6.8 6.6 6.8 6.6-2.7 6.6-6.8Zm12.1-12.5h7.2v4.4c1.8-3.2 4.4-5 8.1-5v7.5h-1.9c-4 0-6 2.2-6 7v11.2h-7.4V31.8Zm19.3-10.7h7.4v20.4l8.1-9.7h8.8l-10.2 11.7 10.7 13.4h-9.1l-8.3-11.3v11.3h-7.4V21.1Zm25.5 28.7h7.2c.2 1.8 1.7 2.8 4.3 2.8 2.3 0 3.7-.8 3.7-2.2 0-1.6-1.9-2-5.5-2.7-5.1-.9-9.1-2.4-9.1-7.9 0-5.4 4.6-8.9 10.8-8.9 6.5 0 10.8 3.4 11.2 8.8h-7c-.2-1.7-1.6-2.7-4.1-2.7-2.2 0-3.5.8-3.5 2.1 0 1.5 1.7 1.9 5.3 2.6 5 .9 9.5 2.3 9.5 8 0 5.5-4.7 9-11.3 9-6.8 0-11.2-3.4-11.5-8.9Zm25.7-18h7.2v3.3c1.8-2.6 4.6-4.2 8.1-4.2 7.2 0 12.3 5.6 12.3 13.4s-5.1 13.4-12.3 13.4c-3.3 0-6-1.4-7.9-3.8v12.5h-7.4V31.8Zm20 12.5c0-4.1-2.6-6.8-6.4-6.8s-6.4 2.7-6.4 6.8 2.6 6.8 6.4 6.8 6.4-2.7 6.4-6.8Zm10.1 0c0-7.8 5.1-13.4 12.3-13.4 3.4 0 6.2 1.5 8 4v-3.1h7.3v25.1h-7.3v-3.2c-1.8 2.5-4.6 4-8 4-7.2 0-12.3-5.6-12.3-13.4Zm20.5 0c0-4.1-2.6-6.8-6.4-6.8s-6.4 2.7-6.4 6.8 2.6 6.8 6.4 6.8 6.4-2.7 6.4-6.8Zm10.7 0c0-7.9 5.7-13.4 13.6-13.4 6.9 0 11.9 4 12.9 10.3h-7.6c-.7-2.3-2.6-3.7-5.3-3.7-3.8 0-6 2.7-6 6.8s2.2 6.8 6 6.8c2.7 0 4.6-1.4 5.3-3.7h7.6c-1 6.3-6 10.3-12.9 10.3-7.9 0-13.6-5.5-13.6-13.4Zm29.1 0c0-7.9 5.5-13.4 13.5-13.4 8.1 0 13.3 5.5 13.3 13.7 0 .7-.1 1.5-.2 2.2h-19.4c.6 3.3 2.8 5.1 6.3 5.1 2.6 0 4.5-1 5.4-2.8h7.5c-1.5 5.3-6.4 8.6-13 8.6-8 0-13.3-5.5-13.3-13.4Zm19.4-2.2c-.5-3.2-2.6-5-5.9-5-3.2 0-5.4 1.8-6.1 5h12Zm11.4-21h24.9v7.1h-16.9v7.1h15.3v6.8h-15.3v8.7h17.3v7.1h-25.3V21.1Zm28.1 23.2c0-7.9 5.7-13.4 13.6-13.4 6.9 0 11.9 4 12.9 10.3h-7.6c-.7-2.3-2.6-3.7-5.3-3.7-3.8 0-6 2.7-6 6.8s2.2 6.8 6 6.8c2.7 0 4.6-1.4 5.3-3.7h7.6c-1 6.3-6 10.3-12.9 10.3-7.9 0-13.6-5.5-13.6-13.4Zm29.1 0c0-7.8 5.9-13.4 14.2-13.4s14.2 5.6 14.2 13.4-5.9 13.4-14.2 13.4-14.2-5.6-14.2-13.4Zm20.8 0c0-4.1-2.6-6.8-6.6-6.8s-6.6 2.7-6.6 6.8 2.6 6.8 6.6 6.8 6.6-2.7 6.6-6.8Z"/>
  </g>
</svg>
